<svg id="svg" version="1.1" width="400" height="353.273137697517" viewBox="0 0 400 353.273137697517" xmlns="http://www.w3.org/2000/svg" xmlns:xlink="http://www.w3.org/1999/xlink" ><g id="svgg"><path id="path0" d="M133.750 114.173 C 117.735 142.693,98.115 177.633,90.149 191.817 L 75.666 217.607 117.348 217.588 C 140.273 217.577,158.775 217.491,158.465 217.396 C 155.629 216.530,153.491 213.942,153.787 211.734 C 153.896 210.923,179.168 165.601,197.149 133.973 C 203.233 123.271,204.105 121.852,205.418 120.523 C 207.977 117.931,211.066 117.537,213.841 119.447 L 214.560 119.942 213.972 119.282 C 212.926 118.108,163.380 62.876,163.119 62.593 C 162.929 62.386,155.725 75.038,133.750 114.173 M22.964 311.662 C 21.458 314.196,0.000 352.659,0.000 352.823 C 0.000 352.980,1.229 353.038,3.667 352.997 L 7.333 352.935 9.576 348.702 L 11.819 344.470 23.122 344.473 L 34.424 344.476 36.696 348.705 L 38.967 352.935 42.648 352.997 C 45.610 353.047,46.306 353.001,46.214 352.763 C 45.530 350.979,23.130 311.382,22.964 311.662 M303.259 331.980 C 296.935 343.241,291.728 352.588,291.688 352.751 C 291.630 352.987,292.368 353.047,295.299 353.045 L 298.984 353.043 301.242 348.758 L 303.499 344.474 314.805 344.472 L 326.111 344.470 328.389 348.702 L 330.666 352.935 334.321 352.997 C 337.212 353.046,337.952 352.999,337.863 352.771 C 337.673 352.288,315.110 311.863,314.927 311.679 C 314.834 311.584,309.583 320.720,303.259 331.980 M376.734 311.996 C 376.578 312.289,371.388 321.549,365.200 332.575 C 359.013 343.601,353.950 352.718,353.950 352.835 C 353.950 352.959,355.466 353.044,357.619 353.039 L 361.287 353.030 368.962 339.023 C 373.183 331.319,376.738 324.876,376.862 324.704 C 377.031 324.471,379.077 327.976,385.008 338.663 L 392.927 352.935 396.464 352.997 C 398.888 353.039,400.000 352.982,400.000 352.815 C 400.000 352.563,377.533 312.005,377.202 311.657 C 377.100 311.551,376.890 311.703,376.734 311.996 M134.816 312.060 C 112.452 316.332,109.502 344.405,130.621 351.990 C 137.091 354.314,147.359 353.516,152.427 350.296 L 153.499 349.614 153.496 346.873 C 153.491 342.978,153.482 342.957,152.179 343.958 C 148.775 346.572,140.535 347.985,135.306 346.853 C 120.747 343.699,118.903 324.590,132.628 319.096 C 138.299 316.826,148.556 318.027,152.412 321.413 C 153.443 322.318,153.492 322.179,153.496 318.338 L 153.499 315.570 152.314 314.817 C 148.507 312.397,140.037 311.063,134.816 312.060 M65.237 332.829 L 65.237 353.047 68.510 353.047 L 71.783 353.047 71.783 346.413 L 71.783 339.779 79.063 339.673 C 87.273 339.552,88.388 339.381,91.490 337.768 C 100.598 333.030,100.379 318.798,91.129 314.349 C 87.967 312.828,87.730 312.802,75.903 312.701 L 65.237 312.610 65.237 332.829 M179.007 332.844 L 179.007 353.047 194.470 353.047 L 209.932 353.047 209.932 350.000 L 209.932 346.953 197.856 346.953 L 185.779 346.953 185.779 341.084 L 185.779 335.214 196.840 335.214 L 207.901 335.214 207.901 332.167 L 207.901 329.120 196.840 329.120 L 185.779 329.120 185.779 323.928 L 185.779 318.736 197.856 318.736 L 209.932 318.736 209.932 315.688 L 209.932 312.641 194.470 312.641 L 179.007 312.641 179.007 332.844 M234.989 332.844 L 234.989 353.047 238.375 353.047 L 241.761 353.047 241.761 344.131 L 241.761 335.214 253.386 335.214 L 265.011 335.214 265.011 344.131 L 265.011 353.047 268.397 353.047 L 271.783 353.047 271.783 332.844 L 271.783 312.641 268.397 312.641 L 265.011 312.641 265.011 320.880 L 265.011 329.120 253.386 329.120 L 241.761 329.120 241.761 320.880 L 241.761 312.641 238.375 312.641 L 234.989 312.641 234.989 332.844 M87.316 319.794 C 92.621 321.956,92.995 329.695,87.916 332.235 C 86.359 333.014,84.602 333.183,78.062 333.183 L 71.783 333.183 71.783 326.171 L 71.783 319.159 78.950 319.232 C 85.684 319.302,86.190 319.336,87.316 319.794 M318.817 330.846 C 320.883 334.713,322.573 337.938,322.573 338.013 C 322.573 338.088,319.060 338.149,314.767 338.149 C 309.896 338.149,306.988 338.068,307.035 337.933 C 307.418 336.836,314.814 323.338,314.920 323.544 C 314.998 323.693,316.751 326.979,318.817 330.846 M27.074 330.780 C 29.192 334.730,30.926 338.003,30.926 338.055 C 30.926 338.107,27.421 338.149,23.138 338.149 C 18.854 338.149,15.350 338.083,15.350 338.003 C 15.350 337.585,22.995 323.372,23.142 323.518 C 23.186 323.562,24.956 326.830,27.074 330.780 " stroke="none" fill="#4c5c6c" fill-rule="evenodd"></path><path id="path1" d="M198.307 0.424 C 196.965 1.260,196.202 2.562,179.710 32.135 L 162.986 62.126 163.491 62.757 C 163.768 63.104,175.372 76.047,189.278 91.520 C 203.183 106.992,214.560 119.725,214.560 119.815 C 214.560 120.152,216.116 121.896,216.417 121.896 C 216.590 121.896,216.681 121.977,216.620 122.075 C 216.504 122.264,357.390 279.253,358.352 280.007 C 359.034 280.542,359.314 280.326,359.001 279.506 C 358.771 278.902,204.934 3.840,203.909 2.200 C 202.644 0.176,200.033 -0.652,198.307 0.424 M117.494 217.780 L 75.508 217.841 59.911 245.884 C 43.899 274.675,43.214 275.962,42.972 277.733 C 42.723 279.546,43.969 280.523,46.154 280.228 C 48.190 279.953,243.441 219.808,243.993 219.286 C 244.631 218.683,244.512 218.150,243.671 217.830 C 243.102 217.613,234.429 217.610,117.494 217.780 " stroke="none" fill="#3c848c" fill-rule="evenodd"></path><path id="path2" d="M96.688 217.777 C 108.213 217.809,127.006 217.809,138.449 217.777 C 149.892 217.744,140.463 217.718,117.494 217.718 C 94.526 217.718,85.163 217.744,96.688 217.777 " stroke="none" fill="#446c7c" fill-rule="evenodd"></path><path id="path3" d="" stroke="none" fill="#446474" fill-rule="evenodd"></path><path id="path4" d="" stroke="none" fill="#447484" fill-rule="evenodd"></path></g></svg>